<svg id="Layer_1" data-name="Layer 1" xmlns="http://www.w3.org/2000/svg" viewBox="0 0 2 3"><defs><style>.cls-1{fill:#fff;}.cls-2{fill:#282828;}.cls-3{fill:#faad1b;}.cls-4{fill:#f37261;}</style></defs><title>pasphoto</title><rect class="cls-1" width="2" height="3"/><path class="cls-2" d="M1.78,1.21c.09-.17.16-.47,0-.62A.49.49,0,0,0,1.86.36.13.13,0,0,0,1.8.23a.14.14,0,0,0-.15,0A.15.15,0,0,0,1.41.19.16.16,0,0,0,1.26.1a.52.52,0,0,0-.17,0,.83.83,0,0,1-.21,0A.43.43,0,0,0,.5.4.42.42,0,0,0,.14.71a.74.74,0,0,0,.11.57.18.18,0,0,0-.05.15.15.15,0,0,0,.05.09.17.17,0,0,0,.12,0,.85.85,0,0,0,.16.31.58.58,0,0,0,.34.2h0c0,.12-.18.16-.25.21a.55.55,0,0,0-.16.18.83.83,0,0,0-.1.44s.05,0,0,0a.72.72,0,0,1,.17-.53.42.42,0,0,1,.14-.09.65.65,0,0,0,.12.39,0,0,0,0,0,0,0A.52.52,0,0,1,1,2.55c0,.11,0,.22,0,.33s.07.06.13,0,0-.05,0,0-.07,0-.07-.08,0-.06,0-.09,0-.11,0-.17a.52.52,0,0,1,.13.13,0,0,0,0,0,0,0,.65.65,0,0,0,.12-.4.44.44,0,0,1,.14.1.72.72,0,0,1,.17.53s0,0,0,0a.83.83,0,0,0-.1-.44.56.56,0,0,0-.16-.18c-.07-.05-.29-.09-.25-.21h0a.54.54,0,0,0,.38-.26.88.88,0,0,0,.09-.29h0C1.87,1.53,1.9,1.27,1.78,1.21ZM.9.23a.71.71,0,0,0,.18,0c.08,0,.27-.12.29,0s0,0,0,0A.11.11,0,0,1,1.51.2.09.09,0,0,1,1.6.3a0,0,0,0,0,0,0s.12-.11.16,0a.18.18,0,0,1,0,.1.48.48,0,0,1-.07.18h0l0,0L1.62.68h0a.66.66,0,0,1-.27.07,1.36,1.36,0,0,1-.41,0A.69.69,0,0,1,.54.52C.5.31.75.25.9.23ZM.18.79A.38.38,0,0,1,.49.45a.26.26,0,0,0,0,.06h0A.87.87,0,0,1,.4.93a1.47,1.47,0,0,0-.08.33h0A.73.73,0,0,1,.18.79Zm.15.52a1.6,1.6,0,0,0,0,.21.11.11,0,0,1-.11-.07S.26,1.31.33,1.3ZM.87,2.62a.59.59,0,0,1-.09-.35h0l.16.17L1,2.5A.58.58,0,0,0,.87,2.62Zm.44-.36h0a.59.59,0,0,1-.09.35A.58.58,0,0,0,1.1,2.5l.08-.08a1.11,1.11,0,0,0,.13-.16Zm-.08,0,0,0-.1.13s-.08.11-.12.09S1,2.38.94,2.35l-.1-.11h0a.14.14,0,0,0,.07-.14h.24A.14.14,0,0,0,1.23,2.22Zm.36-.5A.52.52,0,0,1,1.13,2a.62.62,0,0,1-.56-.18.81.81,0,0,1-.16-.33,1.55,1.55,0,0,1,0-.24h0A1.58,1.58,0,0,1,.47.88.92.92,0,0,0,.54.6.94.94,0,0,0,1,.78a1.1,1.1,0,0,0,.58,0h0a.78.78,0,0,0,.07.47h0a2.92,2.92,0,0,1,0,.3A1,1,0,0,1,1.59,1.72Zm.06-1,.1-.08c.14.14.06.42,0,.57h0A.72.72,0,0,1,1.65.71Zm0,.74c0-.07,0-.14,0-.21S1.83,1.48,1.7,1.46Z"/><circle class="cls-2" cx="0.68" cy="1.32" r="0.07"/><path class="cls-2" d="M1.37,1.1a.22.22,0,0,0-.21.17.25.25,0,0,0-.14,0,.23.23,0,0,0-.13.05.22.22,0,1,0,0,.07.19.19,0,0,1,.26,0,.22.22,0,1,0,.22-.23Zm-.7.39a.17.17,0,1,1,.17-.17h0A.17.17,0,0,1,.68,1.49Zm.7,0a.17.17,0,1,1,.17-.17A.17.17,0,0,1,1.37,1.49Z"/><circle class="cls-2" cx="1.37" cy="1.32" r="0.07"/><path class="cls-2" d="M1.1,1.5s0-.06,0,0a.07.07,0,0,1-.08,0s-.06,0,0,0A.12.12,0,0,0,1.1,1.5Z"/><path class="cls-2" d="M1.19,1.63a.19.19,0,0,1-.33,0s-.06,0,0,0a.24.24,0,0,0,.42,0S1.21,1.6,1.19,1.63Z"/><path class="cls-2" d="M.55,1.09a.17.17,0,0,1,.23,0s.06,0,0,0a.22.22,0,0,0-.3,0S.52,1.11.55,1.09Z"/><path class="cls-2" d="M1.26,1.09a.17.17,0,0,1,.23,0s.06,0,0,0a.22.22,0,0,0-.3,0S1.24,1.11,1.26,1.09Z"/><circle class="cls-2" cx="1.12" cy="2.68" r="0.03"/><circle class="cls-2" cx="1.12" cy="2.79" r="0.03"/><path class="cls-3" d="M1.8.4a.48.48,0,0,1-.07.18h0l0,0L1.62.68h0a.66.66,0,0,1-.27.07,1.36,1.36,0,0,1-.41,0A.69.69,0,0,1,.54.52C.5.31.75.25.9.23a.71.71,0,0,0,.18,0c.08,0,.27-.12.29,0s0,0,0,0A.11.11,0,0,1,1.51.2.09.09,0,0,1,1.6.3a0,0,0,0,0,0,0s.12-.11.16,0A.18.18,0,0,1,1.8.4Z"/><path class="cls-3" d="M.4.93a1.47,1.47,0,0,0-.08.33h0A.73.73,0,0,1,.18.79.38.38,0,0,1,.49.45a.26.26,0,0,0,0,.06h0A.87.87,0,0,1,.4.93Z"/><path class="cls-3" d="M1.73,1.2h0A.72.72,0,0,1,1.65.71l.1-.08C1.88.77,1.81,1.05,1.73,1.2Z"/><circle class="cls-4" cx="0.59" cy="1.65" r="0.1"/><circle class="cls-4" cx="1.48" cy="1.65" r="0.1"/></svg>